<svg width="14" height="17" viewBox="0 0 14 17" fill="none" xmlns="http://www.w3.org/2000/svg">
<path d="M14 16.5H0V0.5H14V16.5Z" stroke="#E5E7EB"/>
<g clip-path="url(#clip0_15_581)">
<g clip-path="url(#clip1_15_581)">
<path d="M4.225 1.05313L4 1.5H1C0.446875 1.5 0 1.94687 0 2.5C0 3.05312 0.446875 3.5 1 3.5H13C13.5531 3.5 14 3.05312 14 2.5C14 1.94687 13.5531 1.5 13 1.5H10L9.775 1.05313C9.60625 0.7125 9.25938 0.5 8.88125 0.5H5.11875C4.74062 0.5 4.39375 0.7125 4.225 1.05313ZM13 4.5H1L1.6625 15.0938C1.7125 15.8844 2.36875 16.5 3.15937 16.5H10.8406C11.6312 16.5 12.2875 15.8844 12.3375 15.0938L13 4.5Z" fill="#4B5563"/>
</g>
</g>
<defs>
<clipPath id="clip0_15_581">
<rect width="14" height="16" fill="white" transform="translate(0 0.5)"/>
</clipPath>
<clipPath id="clip1_15_581">
<path d="M0 0.5H14V16.5H0V0.5Z" fill="white"/>
</clipPath>
</defs>
</svg>
