<svg width="24" height="24" viewBox="0 0 24 24" fill="none" xmlns="http://www.w3.org/2000/svg">
<path d="M24 24H0V0H24V24Z" stroke="#E5E7EB"/>
<path d="M24 24H0V0H24V24Z" stroke="#E5E7EB"/>
<path d="M8.625 1.125C8.625 0.501562 8.12344 0 7.5 0C6.87656 0 6.375 0.501562 6.375 1.125V3H4.5C2.84531 3 1.5 4.34531 1.5 6V6.75V9V21C1.5 22.6547 2.84531 24 4.5 24H19.5C21.1547 24 22.5 22.6547 22.5 21V9V6.75V6C22.5 4.34531 21.1547 3 19.5 3H17.625V1.125C17.625 0.501562 17.1234 0 16.5 0C15.8766 0 15.375 0.501562 15.375 1.125V3H8.625V1.125ZM3.75 9H20.25V21C20.25 21.4125 19.9125 21.75 19.5 21.75H4.5C4.0875 21.75 3.75 21.4125 3.75 21V9ZM12 10.875C11.3766 10.875 10.875 11.3766 10.875 12V14.25H8.625C8.00156 14.25 7.5 14.7516 7.5 15.375C7.5 15.9984 8.00156 16.5 8.625 16.5H10.875V18.75C10.875 19.3734 11.3766 19.875 12 19.875C12.6234 19.875 13.125 19.3734 13.125 18.75V16.5H15.375C15.9984 16.5 16.5 15.9984 16.5 15.375C16.5 14.7516 15.9984 14.25 15.375 14.25H13.125V12C13.125 11.3766 12.6234 10.875 12 10.875Z" fill="#FF6A00"/>
</svg>
