<svg width="24" height="24" viewBox="0 0 24 24" fill="none" xmlns="http://www.w3.org/2000/svg">
<path d="M24 24H0V0H24V24Z" stroke="#E5E7EB"/>
<path d="M1.5 1.5C2.32969 1.5 3 2.17031 3 3V18.75C3 19.1625 3.3375 19.5 3.75 19.5H22.5C23.3297 19.5 24 20.1703 24 21C24 21.8297 23.3297 22.5 22.5 22.5H3.75C1.67812 22.5 0 20.8219 0 18.75V3C0 2.17031 0.670312 1.5 1.5 1.5ZM6 6C6 5.17031 6.67031 4.5 7.5 4.5H16.5C17.3297 4.5 18 5.17031 18 6C18 6.82969 17.3297 7.5 16.5 7.5H7.5C6.67031 7.5 6 6.82969 6 6ZM7.5 9H13.5C14.3297 9 15 9.67031 15 10.5C15 11.3297 14.3297 12 13.5 12H7.5C6.67031 12 6 11.3297 6 10.5C6 9.67031 6.67031 9 7.5 9ZM7.5 13.5H19.5C20.3297 13.5 21 14.1703 21 15C21 15.8297 20.3297 16.5 19.5 16.5H7.5C6.67031 16.5 6 15.8297 6 15C6 14.1703 6.67031 13.5 7.5 13.5Z" fill="#FF6A00"/>
</svg>
