<svg width="17" height="16" viewBox="0 0 17 16" fill="none" xmlns="http://www.w3.org/2000/svg">
<g clip-path="url(#clip0_15_215)">
<path d="M15.4844 8C15.4844 9.72391 14.7996 11.3772 13.5806 12.5962C12.3616 13.8152 10.7083 14.5 8.98438 14.5C7.26047 14.5 5.60717 13.8152 4.38818 12.5962C3.16919 11.3772 2.48438 9.72391 2.48438 8C2.48438 6.27609 3.16919 4.62279 4.38818 3.40381C5.60717 2.18482 7.26047 1.5 8.98438 1.5C10.7083 1.5 12.3616 2.18482 13.5806 3.40381C14.7996 4.62279 15.4844 6.27609 15.4844 8ZM0.984375 8C0.984375 10.1217 1.82723 12.1566 3.32752 13.6569C4.82781 15.1571 6.86264 16 8.98438 16C11.1061 16 13.1409 15.1571 14.6412 13.6569C16.1415 12.1566 16.9844 10.1217 16.9844 8C16.9844 5.87827 16.1415 3.84344 14.6412 2.34315C13.1409 0.842855 11.1061 0 8.98438 0C6.86264 0 4.82781 0.842855 3.32752 2.34315C1.82723 3.84344 0.984375 5.87827 0.984375 8ZM8.23438 3.75V8C8.23438 8.25 8.35938 8.48438 8.56875 8.625L11.5688 10.625C11.9125 10.8562 12.3781 10.7625 12.6094 10.4156C12.8406 10.0687 12.7469 9.60625 12.4 9.375L9.73438 7.6V3.75C9.73438 3.33437 9.4 3 8.98438 3C8.56875 3 8.23438 3.33437 8.23438 3.75Z" fill="#FF6A00"/>
</g>
<defs>
<clipPath id="clip0_15_215">
<path d="M0.984375 0H16.9844V16H0.984375V0Z" fill="white"/>
</clipPath>
</defs>
</svg>
