<svg width="15" height="16" viewBox="0 0 15 16" fill="none" xmlns="http://www.w3.org/2000/svg">
<g clip-path="url(#clip0_15_197)">
<g clip-path="url(#clip1_15_197)">
<path d="M5.63438 0.168807C5.87813 -0.0593181 6.25625 -0.0561931 6.5 0.171932C7.3625 0.981307 8.17188 1.85318 8.92813 2.79693C9.27188 2.34693 9.6625 1.85631 10.0844 1.45631C10.3313 1.22506 10.7125 1.22506 10.9594 1.45943C12.0406 2.49068 12.9563 3.85318 13.6 5.14693C14.2344 6.42193 14.6562 7.72506 14.6562 8.64381C14.6562 12.6313 11.5375 16.0001 7.65625 16.0001C3.73125 16.0001 0.65625 12.6282 0.65625 8.64068C0.65625 7.44068 1.2125 5.97506 2.075 4.52506C2.94688 3.05318 4.17813 1.51881 5.63438 0.168807ZM7.70937 13.0001C8.5 13.0001 9.2 12.7813 9.85938 12.3438C11.175 11.4251 11.5281 9.58756 10.7375 8.14381C10.5969 7.86256 10.2375 7.84381 10.0344 8.08131L9.24687 8.99693C9.04062 9.23443 8.66875 9.22818 8.475 8.98131C7.95937 8.32506 7.0375 7.15318 6.5125 6.48756C6.31562 6.23756 5.94062 6.23443 5.74062 6.48443C4.68437 7.81256 4.15313 8.65006 4.15313 9.59068C4.15625 11.7313 5.7375 13.0001 7.70937 13.0001Z" fill="#FF6A00"/>
</g>
</g>
<defs>
<clipPath id="clip0_15_197">
<rect width="14" height="16" fill="white" transform="translate(0.65625)"/>
</clipPath>
<clipPath id="clip1_15_197">
<path d="M0.65625 0H14.6562V16H0.65625V0Z" fill="white"/>
</clipPath>
</defs>
</svg>
