<svg width="19" height="16" viewBox="0 0 19 16" fill="none" xmlns="http://www.w3.org/2000/svg">
<g clip-path="url(#clip0_15_206)">
<g clip-path="url(#clip1_15_206)">
<path d="M12.8281 0H5.82812C5 0 4.325 0.68125 4.35625 1.50625C4.3625 1.67188 4.36875 1.8375 4.37813 2H1.07812C0.6625 2 0.328125 2.33437 0.328125 2.75C0.328125 5.64375 1.375 7.65625 2.78125 9.02188C4.16563 10.3688 5.85313 11.0469 7.09688 11.3906C7.82812 11.5938 8.32812 12.2031 8.32812 12.8156C8.32812 13.4688 7.79688 14 7.14375 14H6.32812C5.775 14 5.32812 14.4469 5.32812 15C5.32812 15.5531 5.775 16 6.32812 16H12.3281C12.8813 16 13.3281 15.5531 13.3281 15C13.3281 14.4469 12.8813 14 12.3281 14H11.5125C10.8594 14 10.3281 13.4688 10.3281 12.8156C10.3281 12.2031 10.825 11.5906 11.5594 11.3906C12.8062 11.0469 14.4938 10.3688 15.8781 9.02188C17.2812 7.65625 18.3281 5.64375 18.3281 2.75C18.3281 2.33437 17.9937 2 17.5781 2H14.2781C14.2875 1.8375 14.2937 1.675 14.3 1.50625C14.3313 0.68125 13.6562 0 12.8281 0ZM1.85625 3.5H4.49375C4.77813 6.31563 5.40625 8.19688 6.11562 9.45625C5.3375 9.1125 4.52812 8.62813 3.82812 7.94688C2.82812 6.975 2.01562 5.57188 1.85938 3.5H1.85625ZM14.8313 7.94688C14.1313 8.62813 13.3219 9.1125 12.5437 9.45625C13.2531 8.19688 13.8812 6.31563 14.1656 3.5H16.8031C16.6438 5.57188 15.8313 6.975 14.8344 7.94688H14.8313Z" fill="#FF6A00"/>
</g>
</g>
<defs>
<clipPath id="clip0_15_206">
<rect width="18" height="16" fill="white" transform="translate(0.328125)"/>
</clipPath>
<clipPath id="clip1_15_206">
<path d="M0.328125 0H18.3281V16H0.328125V0Z" fill="white"/>
</clipPath>
</defs>
</svg>
